<svg width="27" height="26" viewBox="0 0 27 26" fill="none" xmlns="http://www.w3.org/2000/svg">
<path d="M4.79248 0.18811H21.7657C24.3391 0.18811 26.4196 2.26869 26.4196 4.84208V21.1582C26.4196 23.7316 24.3391 25.8122 21.7657 25.8122H4.79248C2.21909 25.8122 0.138489 23.7316 0.138489 21.1582V4.84208C0.138489 2.26869 2.21909 0.18811 4.79248 0.18811Z" fill="#470137"/>
<path d="M13.9583 6.92257L10.6731 12.343L14.1773 18.092C14.1992 18.1358 14.2101 18.1797 14.1992 18.2234C14.1882 18.2673 14.1445 18.2344 14.0787 18.2453H11.5711C11.3959 18.2453 11.2754 18.2344 11.1988 18.1249C10.9688 17.665 10.7279 17.2159 10.4979 16.756C10.2679 16.3071 10.0161 15.8472 9.75324 15.3764C9.49046 14.9054 9.22768 14.4345 8.96489 13.9527H8.94301C8.713 14.4236 8.4611 14.8944 8.20931 15.3654C7.95741 15.8363 7.70552 16.3071 7.46462 16.767C7.21283 17.2269 6.96093 17.6979 6.70904 18.1468C6.66527 18.2563 6.57765 18.2673 6.45725 18.2673H4.04811C4.00425 18.2673 3.97148 18.2892 3.97148 18.2344C3.96049 18.1905 3.97148 18.1468 3.99336 18.1139L7.39898 12.5292L4.08099 6.91157C4.04812 6.86781 4.03712 6.82395 4.059 6.80206C4.08099 6.76919 4.12475 6.7583 4.16851 6.7583H6.65428C6.70903 6.7583 6.76379 6.76919 6.80766 6.78018C6.85142 6.80206 6.88429 6.83494 6.91717 6.8787C7.1252 7.34962 7.3661 7.82053 7.61799 8.29135C7.88078 8.76226 8.13268 9.22219 8.40635 9.68211C8.66924 10.142 8.91013 10.6019 9.14004 11.0728H9.16193C9.39195 10.591 9.63284 10.12 9.87375 9.66012C10.1146 9.2002 10.3665 8.74028 10.6183 8.28035C10.8702 7.82053 11.1111 7.34962 11.352 6.90068C11.363 6.85682 11.3849 6.81306 11.4178 6.79117C11.4616 6.76919 11.5054 6.7583 11.5602 6.76919H13.8707C13.9254 6.7583 13.9802 6.79117 13.9912 6.84593C14.0021 6.85682 13.9802 6.90069 13.9583 6.92257Z" fill="#FF61F6"/>
<path d="M19.0176 18.4751C18.2072 18.4861 17.3969 18.3218 16.6632 17.9824C15.9733 17.6647 15.4039 17.1392 15.0096 16.4931C14.6045 15.8251 14.4073 14.9928 14.4073 13.9963C14.3964 13.186 14.6045 12.3866 15.0096 11.6858C15.4258 10.974 16.028 10.3827 16.7508 9.9885C17.5173 9.56145 18.4371 9.35332 19.5212 9.35332C19.576 9.35332 19.6526 9.35332 19.7512 9.36431C19.8498 9.3752 19.9593 9.3752 20.0907 9.3862V5.92583C20.0907 5.84919 20.1236 5.80543 20.2002 5.80543H22.4231C22.4778 5.79443 22.5217 5.8382 22.5326 5.88206C22.5326 5.89295 22.5326 5.90395 22.5326 5.90395V16.3288C22.5326 16.526 22.5436 16.7449 22.5546 16.9859C22.5764 17.2158 22.5873 17.4348 22.5983 17.621C22.5983 17.6976 22.5655 17.7633 22.4888 17.7962C21.9194 18.0371 21.3171 18.2123 20.7039 18.3218C20.1454 18.4203 19.587 18.4751 19.0176 18.4751ZM20.0907 16.2851V11.4668C19.9922 11.4449 19.8935 11.423 19.795 11.412C19.6745 11.401 19.5541 11.3902 19.4336 11.3902C19.0066 11.3902 18.5795 11.4778 18.1962 11.6748C17.8239 11.861 17.5064 12.1347 17.2655 12.4852C17.0245 12.8356 16.9041 13.3065 16.9041 13.8759C16.8931 14.2592 16.9588 14.6424 17.0902 15.0038C17.1997 15.2995 17.364 15.5622 17.583 15.7813C17.7911 15.9784 18.043 16.1317 18.3276 16.2193C18.6233 16.3178 18.9299 16.3617 19.2366 16.3617C19.4007 16.3617 19.5541 16.3507 19.6965 16.3397C19.8388 16.3507 19.9593 16.3288 20.0907 16.2851Z" fill="#FF61F6"/>
</svg>
